# xmcd
# 
# Track frame offsets:
#     150
#     22637
#     40310
# 
# Disc length: 666
# 
# Revision: 1
# Processed by: cddbd v1.5.2PL0 Copyright (c) Steve Scherf et al.
# Submitted via: BonkEnc v1.0.8
# 
DISCID=15029803
DTITLE=Janne Da Arc - 月光花
DYEAR=2005
DGENRE=JPop
TTITLE0=月光花
TTITLE1=WING
TTITLE2=月光花 -Black Jack Mix-
EXTD=YEAR: 2005/01/19
EXTT0=
EXTT1=
EXTT2=
PLAYORDER=
